<svg xmlns="http://www.w3.org/2000/svg" version="1.1" xmlns:xlink="http://www.w3.org/1999/xlink" xmlns:svgjs="http://svgjs.dev/svgjs" width="1440" height="560" preserveAspectRatio="none" viewBox="0 0 1440 560"><g mask="url(&quot;#SvgjsMask1000&quot;)" fill="none"><rect width="1440" height="560" x="0" y="0" fill="rgba(0, 18, 32, 1)"></rect><path d="M-65.95 372.71L-65.95 372.71" stroke="rgba(245, 147, 140, 1)" stroke-width="1.5"></path><path d="M-65.95 372.71L49.88 411.58" stroke="rgba(245, 147, 140, 1)" stroke-width="1.5"></path><path d="M-65.95 372.71L-93.45 547.11" stroke="rgba(245, 147, 140, 1)" stroke-width="1.5"></path><path d="M-65.95 372.71L40.8 559.86" stroke="rgba(245, 147, 140, 1)" stroke-width="1.5"></path><path d="M-93.45 547.11L-93.45 547.11" stroke="rgba(245, 147, 140, 1)" stroke-width="1.5"></path><path d="M-93.45 547.11L40.8 559.86" stroke="rgba(245, 147, 140, 1)" stroke-width="1.5"></path><path d="M-93.45 547.11L-60.42 693.77" stroke="rgba(245, 147, 140, 1)" stroke-width="1.5"></path><path d="M-60.42 693.77L-60.42 693.77" stroke="rgba(245, 147, 140, 1)" stroke-width="1.5"></path><path d="M-60.42 693.77L39.06 695" stroke="rgba(245, 147, 140, 1)" stroke-width="1.5"></path><path d="M49.88 411.58L49.88 411.58" stroke="rgba(245, 147, 140, 1)" stroke-width="1.5"></path><path d="M49.88 411.58L40.8 559.86" stroke="rgba(245, 147, 140, 1)" stroke-width="1.5"></path><path d="M49.88 411.58L204.21 489.69" stroke="rgba(245, 147, 140, 1)" stroke-width="1.5"></path><path d="M49.88 411.58L-93.45 547.11" stroke="rgba(245, 147, 140, 1)" stroke-width="1.5"></path><path d="M49.88 411.58L256.97 407.86" stroke="rgba(245, 147, 140, 1)" stroke-width="1.5"></path><path d="M40.8 559.86L40.8 559.86" stroke="rgba(245, 147, 140, 1)" stroke-width="1.5"></path><path d="M40.8 559.86L39.06 695" stroke="rgba(245, 147, 140, 1)" stroke-width="1.5"></path><path d="M39.06 695L39.06 695" stroke="rgba(245, 147, 140, 1)" stroke-width="1.5"></path><path d="M39.06 695L205.55 693.64" stroke="rgba(245, 147, 140, 1)" stroke-width="1.5"></path><path d="M39.06 695L-93.45 547.11" stroke="rgba(245, 147, 140, 1)" stroke-width="1.5"></path><path d="M256.97 407.86L256.97 407.86" stroke="rgba(245, 147, 140, 1)" stroke-width="1.5"></path><path d="M256.97 407.86L204.21 489.69" stroke="rgba(245, 147, 140, 1)" stroke-width="1.5"></path><path d="M256.97 407.86L394.72 381.17" stroke="rgba(245, 147, 140, 1)" stroke-width="1.5"></path><path d="M256.97 407.86L350.96 530.92" stroke="rgba(245, 147, 140, 1)" stroke-width="1.5"></path><path d="M204.21 489.69L204.21 489.69" stroke="rgba(245, 147, 140, 1)" stroke-width="1.5"></path><path d="M204.21 489.69L350.96 530.92" stroke="rgba(245, 147, 140, 1)" stroke-width="1.5"></path><path d="M205.55 693.64L205.55 693.64" stroke="rgba(245, 147, 140, 1)" stroke-width="1.5"></path><path d="M205.55 693.64L348.66 697.28" stroke="rgba(245, 147, 140, 1)" stroke-width="1.5"></path><path d="M205.55 693.64L204.21 489.69" stroke="rgba(245, 147, 140, 1)" stroke-width="1.5"></path><path d="M205.55 693.64L40.8 559.86" stroke="rgba(245, 147, 140, 1)" stroke-width="1.5"></path><path d="M205.55 693.64L350.96 530.92" stroke="rgba(245, 147, 140, 1)" stroke-width="1.5"></path><path d="M394.72 381.17L394.72 381.17" stroke="rgba(245, 147, 140, 1)" stroke-width="1.5"></path><path d="M394.72 381.17L545.79 393.75" stroke="rgba(245, 147, 140, 1)" stroke-width="1.5"></path><path d="M394.72 381.17L350.96 530.92" stroke="rgba(245, 147, 140, 1)" stroke-width="1.5"></path><path d="M394.72 381.17L549.8 503.91" stroke="rgba(245, 147, 140, 1)" stroke-width="1.5"></path><path d="M394.72 381.17L204.21 489.69" stroke="rgba(245, 147, 140, 1)" stroke-width="1.5"></path><path d="M350.96 530.92L350.96 530.92" stroke="rgba(245, 147, 140, 1)" stroke-width="1.5"></path><path d="M350.96 530.92L348.66 697.28" stroke="rgba(245, 147, 140, 1)" stroke-width="1.5"></path><path d="M350.96 530.92L549.8 503.91" stroke="rgba(245, 147, 140, 1)" stroke-width="1.5"></path><path d="M348.66 697.28L348.66 697.28" stroke="rgba(245, 147, 140, 1)" stroke-width="1.5"></path><path d="M348.66 697.28L551.73 703.44" stroke="rgba(245, 147, 140, 1)" stroke-width="1.5"></path><path d="M348.66 697.28L204.21 489.69" stroke="rgba(245, 147, 140, 1)" stroke-width="1.5"></path><path d="M348.66 697.28L549.8 503.91" stroke="rgba(245, 147, 140, 1)" stroke-width="1.5"></path><path d="M348.66 697.28L256.97 407.86" stroke="rgba(245, 147, 140, 1)" stroke-width="1.5"></path><path d="M545.79 393.75L545.79 393.75" stroke="rgba(245, 147, 140, 1)" stroke-width="1.5"></path><path d="M545.79 393.75L549.8 503.91" stroke="rgba(245, 147, 140, 1)" stroke-width="1.5"></path><path d="M545.79 393.75L689.69 375.3" stroke="rgba(245, 147, 140, 1)" stroke-width="1.5"></path><path d="M545.79 393.75L690.38 559.67" stroke="rgba(245, 147, 140, 1)" stroke-width="1.5"></path><path d="M545.79 393.75L688.96 211.14" stroke="rgba(245, 147, 140, 1)" stroke-width="1.5"></path><path d="M549.8 503.91L549.8 503.91" stroke="rgba(245, 147, 140, 1)" stroke-width="1.5"></path><path d="M549.8 503.91L690.38 559.67" stroke="rgba(245, 147, 140, 1)" stroke-width="1.5"></path><path d="M549.8 503.91L689.69 375.3" stroke="rgba(245, 147, 140, 1)" stroke-width="1.5"></path><path d="M551.73 703.44L551.73 703.44" stroke="rgba(245, 147, 140, 1)" stroke-width="1.5"></path><path d="M551.73 703.44L549.8 503.91" stroke="rgba(245, 147, 140, 1)" stroke-width="1.5"></path><path d="M551.73 703.44L690.38 559.67" stroke="rgba(245, 147, 140, 1)" stroke-width="1.5"></path><path d="M551.73 703.44L350.96 530.92" stroke="rgba(245, 147, 140, 1)" stroke-width="1.5"></path><path d="M551.73 703.44L833.68 676.41" stroke="rgba(245, 147, 140, 1)" stroke-width="1.5"></path><path d="M688.96 211.14L688.96 211.14" stroke="rgba(245, 147, 140, 1)" stroke-width="1.5"></path><path d="M688.96 211.14L689.69 375.3" stroke="rgba(245, 147, 140, 1)" stroke-width="1.5"></path><path d="M688.96 211.14L857.94 187.65" stroke="rgba(245, 147, 140, 1)" stroke-width="1.5"></path><path d="M688.96 211.14L860.45 108.27" stroke="rgba(245, 147, 140, 1)" stroke-width="1.5"></path><path d="M688.96 211.14L852.34 353.68" stroke="rgba(245, 147, 140, 1)" stroke-width="1.5"></path><path d="M689.69 375.3L689.69 375.3" stroke="rgba(245, 147, 140, 1)" stroke-width="1.5"></path><path d="M689.69 375.3L852.34 353.68" stroke="rgba(245, 147, 140, 1)" stroke-width="1.5"></path><path d="M690.38 559.67L690.38 559.67" stroke="rgba(245, 147, 140, 1)" stroke-width="1.5"></path><path d="M690.38 559.67L835.72 519.01" stroke="rgba(245, 147, 140, 1)" stroke-width="1.5"></path><path d="M690.38 559.67L689.69 375.3" stroke="rgba(245, 147, 140, 1)" stroke-width="1.5"></path><path d="M860.45 108.27L860.45 108.27" stroke="rgba(245, 147, 140, 1)" stroke-width="1.5"></path><path d="M860.45 108.27L857.94 187.65" stroke="rgba(245, 147, 140, 1)" stroke-width="1.5"></path><path d="M860.45 108.27L942.88 246" stroke="rgba(245, 147, 140, 1)" stroke-width="1.5"></path><path d="M860.45 108.27L975.7 -51.98" stroke="rgba(245, 147, 140, 1)" stroke-width="1.5"></path><path d="M860.45 108.27L852.34 353.68" stroke="rgba(245, 147, 140, 1)" stroke-width="1.5"></path><path d="M860.45 108.27L1113.84 69.74" stroke="rgba(245, 147, 140, 1)" stroke-width="1.5"></path><path d="M857.94 187.65L857.94 187.65" stroke="rgba(245, 147, 140, 1)" stroke-width="1.5"></path><path d="M857.94 187.65L942.88 246" stroke="rgba(245, 147, 140, 1)" stroke-width="1.5"></path><path d="M857.94 187.65L852.34 353.68" stroke="rgba(245, 147, 140, 1)" stroke-width="1.5"></path><path d="M857.94 187.65L959.67 392.27" stroke="rgba(245, 147, 140, 1)" stroke-width="1.5"></path><path d="M852.34 353.68L852.34 353.68" stroke="rgba(245, 147, 140, 1)" stroke-width="1.5"></path><path d="M852.34 353.68L959.67 392.27" stroke="rgba(245, 147, 140, 1)" stroke-width="1.5"></path><path d="M852.34 353.68L942.88 246" stroke="rgba(245, 147, 140, 1)" stroke-width="1.5"></path><path d="M835.72 519.01L835.72 519.01" stroke="rgba(245, 147, 140, 1)" stroke-width="1.5"></path><path d="M835.72 519.01L946.93 533.19" stroke="rgba(245, 147, 140, 1)" stroke-width="1.5"></path><path d="M835.72 519.01L833.68 676.41" stroke="rgba(245, 147, 140, 1)" stroke-width="1.5"></path><path d="M833.68 676.41L833.68 676.41" stroke="rgba(245, 147, 140, 1)" stroke-width="1.5"></path><path d="M833.68 676.41L961.5 673.17" stroke="rgba(245, 147, 140, 1)" stroke-width="1.5"></path><path d="M833.68 676.41L946.93 533.19" stroke="rgba(245, 147, 140, 1)" stroke-width="1.5"></path><path d="M975.7 -51.98L975.7 -51.98" stroke="rgba(245, 147, 140, 1)" stroke-width="1.5"></path><path d="M975.7 -51.98L1123.88 -47.83" stroke="rgba(245, 147, 140, 1)" stroke-width="1.5"></path><path d="M942.88 246L942.88 246" stroke="rgba(245, 147, 140, 1)" stroke-width="1.5"></path><path d="M942.88 246L959.67 392.27" stroke="rgba(245, 147, 140, 1)" stroke-width="1.5"></path><path d="M959.67 392.27L959.67 392.27" stroke="rgba(245, 147, 140, 1)" stroke-width="1.5"></path><path d="M959.67 392.27L946.93 533.19" stroke="rgba(245, 147, 140, 1)" stroke-width="1.5"></path><path d="M959.67 392.27L1128.67 386.95" stroke="rgba(245, 147, 140, 1)" stroke-width="1.5"></path><path d="M946.93 533.19L946.93 533.19" stroke="rgba(245, 147, 140, 1)" stroke-width="1.5"></path><path d="M946.93 533.19L961.5 673.17" stroke="rgba(245, 147, 140, 1)" stroke-width="1.5"></path><path d="M961.5 673.17L961.5 673.17" stroke="rgba(245, 147, 140, 1)" stroke-width="1.5"></path><path d="M961.5 673.17L1148.02 693.22" stroke="rgba(245, 147, 140, 1)" stroke-width="1.5"></path><path d="M1123.88 -47.83L1123.88 -47.83" stroke="rgba(245, 147, 140, 1)" stroke-width="1.5"></path><path d="M1123.88 -47.83L1113.84 69.74" stroke="rgba(245, 147, 140, 1)" stroke-width="1.5"></path><path d="M1123.88 -47.83L1258.66 -103.58" stroke="rgba(245, 147, 140, 1)" stroke-width="1.5"></path><path d="M1123.88 -47.83L1300.22 96.54" stroke="rgba(245, 147, 140, 1)" stroke-width="1.5"></path><path d="M1113.84 69.74L1113.84 69.74" stroke="rgba(245, 147, 140, 1)" stroke-width="1.5"></path><path d="M1113.84 69.74L1162.44 191.8" stroke="rgba(245, 147, 140, 1)" stroke-width="1.5"></path><path d="M1113.84 69.74L975.7 -51.98" stroke="rgba(245, 147, 140, 1)" stroke-width="1.5"></path><path d="M1113.84 69.74L1300.22 96.54" stroke="rgba(245, 147, 140, 1)" stroke-width="1.5"></path><path d="M1113.84 69.74L1258.66 -103.58" stroke="rgba(245, 147, 140, 1)" stroke-width="1.5"></path><path d="M1113.84 69.74L942.88 246" stroke="rgba(245, 147, 140, 1)" stroke-width="1.5"></path><path d="M1162.44 191.8L1162.44 191.8" stroke="rgba(245, 147, 140, 1)" stroke-width="1.5"></path><path d="M1162.44 191.8L1299.43 242.22" stroke="rgba(245, 147, 140, 1)" stroke-width="1.5"></path><path d="M1162.44 191.8L1300.22 96.54" stroke="rgba(245, 147, 140, 1)" stroke-width="1.5"></path><path d="M1128.67 386.95L1128.67 386.95" stroke="rgba(245, 147, 140, 1)" stroke-width="1.5"></path><path d="M1128.67 386.95L1121.12 541.96" stroke="rgba(245, 147, 140, 1)" stroke-width="1.5"></path><path d="M1128.67 386.95L1307.83 347.59" stroke="rgba(245, 147, 140, 1)" stroke-width="1.5"></path><path d="M1128.67 386.95L1162.44 191.8" stroke="rgba(245, 147, 140, 1)" stroke-width="1.5"></path><path d="M1128.67 386.95L1270.46 553.45" stroke="rgba(245, 147, 140, 1)" stroke-width="1.5"></path><path d="M1121.12 541.96L1121.12 541.96" stroke="rgba(245, 147, 140, 1)" stroke-width="1.5"></path><path d="M1121.12 541.96L1270.46 553.45" stroke="rgba(245, 147, 140, 1)" stroke-width="1.5"></path><path d="M1121.12 541.96L1148.02 693.22" stroke="rgba(245, 147, 140, 1)" stroke-width="1.5"></path><path d="M1121.12 541.96L946.93 533.19" stroke="rgba(245, 147, 140, 1)" stroke-width="1.5"></path><path d="M1121.12 541.96L1253.6 691.15" stroke="rgba(245, 147, 140, 1)" stroke-width="1.5"></path><path d="M1121.12 541.96L961.5 673.17" stroke="rgba(245, 147, 140, 1)" stroke-width="1.5"></path><path d="M1148.02 693.22L1148.02 693.22" stroke="rgba(245, 147, 140, 1)" stroke-width="1.5"></path><path d="M1148.02 693.22L1253.6 691.15" stroke="rgba(245, 147, 140, 1)" stroke-width="1.5"></path><path d="M1258.66 -103.58L1258.66 -103.58" stroke="rgba(245, 147, 140, 1)" stroke-width="1.5"></path><path d="M1258.66 -103.58L1300.22 96.54" stroke="rgba(245, 147, 140, 1)" stroke-width="1.5"></path><path d="M1258.66 -103.58L1440.21 60.39" stroke="rgba(245, 147, 140, 1)" stroke-width="1.5"></path><path d="M1258.66 -103.58L975.7 -51.98" stroke="rgba(245, 147, 140, 1)" stroke-width="1.5"></path><path d="M1300.22 96.54L1300.22 96.54" stroke="rgba(245, 147, 140, 1)" stroke-width="1.5"></path><path d="M1300.22 96.54L1440.21 60.39" stroke="rgba(245, 147, 140, 1)" stroke-width="1.5"></path><path d="M1300.22 96.54L1299.43 242.22" stroke="rgba(245, 147, 140, 1)" stroke-width="1.5"></path><path d="M1300.22 96.54L1431.06 234.11" stroke="rgba(245, 147, 140, 1)" stroke-width="1.5"></path><path d="M1299.43 242.22L1299.43 242.22" stroke="rgba(245, 147, 140, 1)" stroke-width="1.5"></path><path d="M1299.43 242.22L1307.83 347.59" stroke="rgba(245, 147, 140, 1)" stroke-width="1.5"></path><path d="M1299.43 242.22L1431.06 234.11" stroke="rgba(245, 147, 140, 1)" stroke-width="1.5"></path><path d="M1299.43 242.22L1451.1 347.12" stroke="rgba(245, 147, 140, 1)" stroke-width="1.5"></path><path d="M1299.43 242.22L1128.67 386.95" stroke="rgba(245, 147, 140, 1)" stroke-width="1.5"></path><path d="M1307.83 347.59L1307.83 347.59" stroke="rgba(245, 147, 140, 1)" stroke-width="1.5"></path><path d="M1307.83 347.59L1451.1 347.12" stroke="rgba(245, 147, 140, 1)" stroke-width="1.5"></path><path d="M1307.83 347.59L1431.06 234.11" stroke="rgba(245, 147, 140, 1)" stroke-width="1.5"></path><path d="M1270.46 553.45L1270.46 553.45" stroke="rgba(245, 147, 140, 1)" stroke-width="1.5"></path><path d="M1270.46 553.45L1253.6 691.15" stroke="rgba(245, 147, 140, 1)" stroke-width="1.5"></path><path d="M1270.46 553.45L1148.02 693.22" stroke="rgba(245, 147, 140, 1)" stroke-width="1.5"></path><path d="M1270.46 553.45L1453.23 492.22" stroke="rgba(245, 147, 140, 1)" stroke-width="1.5"></path><path d="M1270.46 553.45L1307.83 347.59" stroke="rgba(245, 147, 140, 1)" stroke-width="1.5"></path><path d="M1253.6 691.15L1253.6 691.15" stroke="rgba(245, 147, 140, 1)" stroke-width="1.5"></path><path d="M1253.6 691.15L1422.9 707.54" stroke="rgba(245, 147, 140, 1)" stroke-width="1.5"></path><path d="M1440.21 60.39L1440.21 60.39" stroke="rgba(245, 147, 140, 1)" stroke-width="1.5"></path><path d="M1440.21 60.39L1567.15 93.41" stroke="rgba(245, 147, 140, 1)" stroke-width="1.5"></path><path d="M1440.21 60.39L1578.16 -37.73" stroke="rgba(245, 147, 140, 1)" stroke-width="1.5"></path><path d="M1440.21 60.39L1431.06 234.11" stroke="rgba(245, 147, 140, 1)" stroke-width="1.5"></path><path d="M1440.21 60.39L1299.43 242.22" stroke="rgba(245, 147, 140, 1)" stroke-width="1.5"></path><path d="M1431.06 234.11L1431.06 234.11" stroke="rgba(245, 147, 140, 1)" stroke-width="1.5"></path><path d="M1431.06 234.11L1451.1 347.12" stroke="rgba(245, 147, 140, 1)" stroke-width="1.5"></path><path d="M1451.1 347.12L1451.1 347.12" stroke="rgba(245, 147, 140, 1)" stroke-width="1.5"></path><path d="M1451.1 347.12L1559.83 389.49" stroke="rgba(245, 147, 140, 1)" stroke-width="1.5"></path><path d="M1453.23 492.22L1453.23 492.22" stroke="rgba(245, 147, 140, 1)" stroke-width="1.5"></path><path d="M1453.23 492.22L1569.44 501.21" stroke="rgba(245, 147, 140, 1)" stroke-width="1.5"></path><path d="M1453.23 492.22L1451.1 347.12" stroke="rgba(245, 147, 140, 1)" stroke-width="1.5"></path><path d="M1453.23 492.22L1559.83 389.49" stroke="rgba(245, 147, 140, 1)" stroke-width="1.5"></path><path d="M1422.9 707.54L1422.9 707.54" stroke="rgba(245, 147, 140, 1)" stroke-width="1.5"></path><path d="M1422.9 707.54L1591.51 665.02" stroke="rgba(245, 147, 140, 1)" stroke-width="1.5"></path><path d="M1422.9 707.54L1270.46 553.45" stroke="rgba(245, 147, 140, 1)" stroke-width="1.5"></path><path d="M1422.9 707.54L1453.23 492.22" stroke="rgba(245, 147, 140, 1)" stroke-width="1.5"></path><path d="M1422.9 707.54L1569.44 501.21" stroke="rgba(245, 147, 140, 1)" stroke-width="1.5"></path><path d="M1422.9 707.54L1148.02 693.22" stroke="rgba(245, 147, 140, 1)" stroke-width="1.5"></path><path d="M1578.16 -37.73L1578.16 -37.73" stroke="rgba(245, 147, 140, 1)" stroke-width="1.5"></path><path d="M1578.16 -37.73L1567.15 93.41" stroke="rgba(245, 147, 140, 1)" stroke-width="1.5"></path><path d="M1578.16 -37.73L1300.22 96.54" stroke="rgba(245, 147, 140, 1)" stroke-width="1.5"></path><path d="M1578.16 -37.73L1431.06 234.11" stroke="rgba(245, 147, 140, 1)" stroke-width="1.5"></path><path d="M1578.16 -37.73L1258.66 -103.58" stroke="rgba(245, 147, 140, 1)" stroke-width="1.5"></path><path d="M1578.16 -37.73L1299.43 242.22" stroke="rgba(245, 147, 140, 1)" stroke-width="1.5"></path><path d="M1567.15 93.41L1567.15 93.41" stroke="rgba(245, 147, 140, 1)" stroke-width="1.5"></path><path d="M1567.15 93.41L1431.06 234.11" stroke="rgba(245, 147, 140, 1)" stroke-width="1.5"></path><path d="M1567.15 93.41L1300.22 96.54" stroke="rgba(245, 147, 140, 1)" stroke-width="1.5"></path><path d="M1567.15 93.41L1451.1 347.12" stroke="rgba(245, 147, 140, 1)" stroke-width="1.5"></path><path d="M1559.83 389.49L1559.83 389.49" stroke="rgba(245, 147, 140, 1)" stroke-width="1.5"></path><path d="M1559.83 389.49L1569.44 501.21" stroke="rgba(245, 147, 140, 1)" stroke-width="1.5"></path><path d="M1559.83 389.49L1431.06 234.11" stroke="rgba(245, 147, 140, 1)" stroke-width="1.5"></path><path d="M1559.83 389.49L1307.83 347.59" stroke="rgba(245, 147, 140, 1)" stroke-width="1.5"></path><path d="M1559.83 389.49L1591.51 665.02" stroke="rgba(245, 147, 140, 1)" stroke-width="1.5"></path><path d="M1569.44 501.21L1569.44 501.21" stroke="rgba(245, 147, 140, 1)" stroke-width="1.5"></path><path d="M1569.44 501.21L1591.51 665.02" stroke="rgba(245, 147, 140, 1)" stroke-width="1.5"></path><path d="M1591.51 665.02L1591.51 665.02" stroke="rgba(245, 147, 140, 1)" stroke-width="1.5"></path><circle r="5" cx="-65.95" cy="372.71" fill="rgba(245, 147, 140, 1)"></circle><circle r="5" cx="-93.45" cy="547.11" fill="rgba(245, 147, 140, 1)"></circle><circle r="5" cx="-60.42" cy="693.77" fill="rgba(245, 147, 140, 1)"></circle><circle r="5" cx="49.88" cy="411.58" fill="rgba(245, 147, 140, 1)"></circle><circle r="5" cx="40.8" cy="559.86" fill="rgba(245, 147, 140, 1)"></circle><circle r="5" cx="39.06" cy="695" fill="rgba(245, 147, 140, 1)"></circle><circle r="5" cx="256.97" cy="407.86" fill="rgba(245, 147, 140, 1)"></circle><circle r="5" cx="204.21" cy="489.69" fill="rgba(245, 147, 140, 1)"></circle><circle r="5" cx="205.55" cy="693.64" fill="rgba(245, 147, 140, 1)"></circle><circle r="5" cx="394.72" cy="381.17" fill="rgba(245, 147, 140, 1)"></circle><circle r="5" cx="350.96" cy="530.92" fill="rgba(245, 147, 140, 1)"></circle><circle r="5" cx="348.66" cy="697.28" fill="rgba(245, 147, 140, 1)"></circle><circle r="5" cx="545.79" cy="393.75" fill="rgba(245, 147, 140, 1)"></circle><circle r="5" cx="549.8" cy="503.91" fill="rgba(245, 147, 140, 1)"></circle><circle r="5" cx="551.73" cy="703.44" fill="rgba(245, 147, 140, 1)"></circle><circle r="5" cx="688.96" cy="211.14" fill="rgba(245, 147, 140, 1)"></circle><circle r="5" cx="689.69" cy="375.3" fill="rgba(245, 147, 140, 1)"></circle><circle r="5" cx="690.38" cy="559.67" fill="rgba(245, 147, 140, 1)"></circle><circle r="5" cx="860.45" cy="108.27" fill="rgba(245, 147, 140, 1)"></circle><circle r="5" cx="857.94" cy="187.65" fill="rgba(245, 147, 140, 1)"></circle><circle r="5" cx="852.34" cy="353.68" fill="rgba(245, 147, 140, 1)"></circle><circle r="5" cx="835.72" cy="519.01" fill="rgba(245, 147, 140, 1)"></circle><circle r="5" cx="833.68" cy="676.41" fill="rgba(245, 147, 140, 1)"></circle><circle r="5" cx="975.7" cy="-51.98" fill="rgba(245, 147, 140, 1)"></circle><circle r="5" cx="942.88" cy="246" fill="rgba(245, 147, 140, 1)"></circle><circle r="5" cx="959.67" cy="392.27" fill="rgba(245, 147, 140, 1)"></circle><circle r="5" cx="946.93" cy="533.19" fill="rgba(245, 147, 140, 1)"></circle><circle r="5" cx="961.5" cy="673.17" fill="rgba(245, 147, 140, 1)"></circle><circle r="5" cx="1123.88" cy="-47.83" fill="rgba(245, 147, 140, 1)"></circle><circle r="5" cx="1113.84" cy="69.74" fill="rgba(245, 147, 140, 1)"></circle><circle r="5" cx="1162.44" cy="191.8" fill="rgba(245, 147, 140, 1)"></circle><circle r="5" cx="1128.67" cy="386.95" fill="rgba(245, 147, 140, 1)"></circle><circle r="5" cx="1121.12" cy="541.96" fill="rgba(245, 147, 140, 1)"></circle><circle r="5" cx="1148.02" cy="693.22" fill="rgba(245, 147, 140, 1)"></circle><circle r="5" cx="1258.66" cy="-103.58" fill="rgba(245, 147, 140, 1)"></circle><circle r="5" cx="1300.22" cy="96.54" fill="rgba(245, 147, 140, 1)"></circle><circle r="5" cx="1299.43" cy="242.22" fill="rgba(245, 147, 140, 1)"></circle><circle r="5" cx="1307.83" cy="347.59" fill="rgba(245, 147, 140, 1)"></circle><circle r="5" cx="1270.46" cy="553.45" fill="rgba(245, 147, 140, 1)"></circle><circle r="5" cx="1253.6" cy="691.15" fill="rgba(245, 147, 140, 1)"></circle><circle r="5" cx="1440.21" cy="60.39" fill="rgba(245, 147, 140, 1)"></circle><circle r="5" cx="1431.06" cy="234.11" fill="rgba(245, 147, 140, 1)"></circle><circle r="5" cx="1451.1" cy="347.12" fill="rgba(245, 147, 140, 1)"></circle><circle r="5" cx="1453.23" cy="492.22" fill="rgba(245, 147, 140, 1)"></circle><circle r="5" cx="1422.9" cy="707.54" fill="rgba(245, 147, 140, 1)"></circle><circle r="5" cx="1578.16" cy="-37.73" fill="rgba(245, 147, 140, 1)"></circle><circle r="5" cx="1567.15" cy="93.41" fill="rgba(245, 147, 140, 1)"></circle><circle r="5" cx="1559.83" cy="389.49" fill="rgba(245, 147, 140, 1)"></circle><circle r="5" cx="1569.44" cy="501.21" fill="rgba(245, 147, 140, 1)"></circle><circle r="5" cx="1591.51" cy="665.02" fill="rgba(245, 147, 140, 1)"></circle><path d="M200.96 511.45L200.96 511.45" stroke="hsl(4, 84%, 98.1%)" stroke-width="1.5"></path><path d="M200.96 511.45L88.08 497.65" stroke="hsl(4, 84%, 98.1%)" stroke-width="1.5"></path><path d="M200.96 511.45L213.88 663.15" stroke="hsl(4, 84%, 98.1%)" stroke-width="1.5"></path><path d="M407.95 676.51L407.95 676.51" stroke="hsl(4, 84%, 98.1%)" stroke-width="1.5"></path><path d="M407.95 676.51L547.63 645.17" stroke="hsl(4, 84%, 98.1%)" stroke-width="1.5"></path><path d="M407.95 676.51L366.42 492.93" stroke="hsl(4, 84%, 98.1%)" stroke-width="1.5"></path><path d="M407.95 676.51L213.88 663.15" stroke="hsl(4, 84%, 98.1%)" stroke-width="1.5"></path><path d="M407.95 676.51L552.42 501.44" stroke="hsl(4, 84%, 98.1%)" stroke-width="1.5"></path><path d="M407.95 676.51L200.96 511.45" stroke="hsl(4, 84%, 98.1%)" stroke-width="1.5"></path><path d="M407.95 676.51L710.96 671.94" stroke="hsl(4, 84%, 98.1%)" stroke-width="1.5"></path><path d="M552.42 501.44L552.42 501.44" stroke="hsl(4, 84%, 98.1%)" stroke-width="1.5"></path><path d="M552.42 501.44L683.06 545.65" stroke="hsl(4, 84%, 98.1%)" stroke-width="1.5"></path><path d="M552.42 501.44L659.03 407.4" stroke="hsl(4, 84%, 98.1%)" stroke-width="1.5"></path><path d="M552.42 501.44L547.63 645.17" stroke="hsl(4, 84%, 98.1%)" stroke-width="1.5"></path><path d="M552.42 501.44L366.42 492.93" stroke="hsl(4, 84%, 98.1%)" stroke-width="1.5"></path><path d="M552.42 501.44L710.96 671.94" stroke="hsl(4, 84%, 98.1%)" stroke-width="1.5"></path><path d="M844.41 370.85L844.41 370.85" stroke="hsl(4, 84%, 98.1%)" stroke-width="1.5"></path><path d="M844.41 370.85L815.94 512.18" stroke="hsl(4, 84%, 98.1%)" stroke-width="1.5"></path><path d="M844.41 370.85L1010.38 387.29" stroke="hsl(4, 84%, 98.1%)" stroke-width="1.5"></path><path d="M844.41 370.85L659.03 407.4" stroke="hsl(4, 84%, 98.1%)" stroke-width="1.5"></path><path d="M844.41 370.85L683.06 545.65" stroke="hsl(4, 84%, 98.1%)" stroke-width="1.5"></path><path d="M834.69 640.38L834.69 640.38" stroke="hsl(4, 84%, 98.1%)" stroke-width="1.5"></path><path d="M834.69 640.38L710.96 671.94" stroke="hsl(4, 84%, 98.1%)" stroke-width="1.5"></path><path d="M834.69 640.38L963.63 651.78" stroke="hsl(4, 84%, 98.1%)" stroke-width="1.5"></path><path d="M834.69 640.38L815.94 512.18" stroke="hsl(4, 84%, 98.1%)" stroke-width="1.5"></path><path d="M834.69 640.38L683.06 545.65" stroke="hsl(4, 84%, 98.1%)" stroke-width="1.5"></path><path d="M1010.38 387.29L1010.38 387.29" stroke="hsl(4, 84%, 98.1%)" stroke-width="1.5"></path><path d="M1010.38 387.29L1094.25 252.8" stroke="hsl(4, 84%, 98.1%)" stroke-width="1.5"></path><path d="M1143.43 67.97L1143.43 67.97" stroke="hsl(4, 84%, 98.1%)" stroke-width="1.5"></path><path d="M1143.43 67.97L1291.39 110.92" stroke="hsl(4, 84%, 98.1%)" stroke-width="1.5"></path><path d="M1143.43 67.97L1244.68 206.18" stroke="hsl(4, 84%, 98.1%)" stroke-width="1.5"></path><path d="M1143.43 67.97L1094.25 252.8" stroke="hsl(4, 84%, 98.1%)" stroke-width="1.5"></path><path d="M1143.43 67.97L1296.4 -61.08" stroke="hsl(4, 84%, 98.1%)" stroke-width="1.5"></path><path d="M1143.43 67.97L1396.2 57.59" stroke="hsl(4, 84%, 98.1%)" stroke-width="1.5"></path><path d="M1143.43 67.97L1240.29 348.38" stroke="hsl(4, 84%, 98.1%)" stroke-width="1.5"></path><path d="M1094.25 252.8L1094.25 252.8" stroke="hsl(4, 84%, 98.1%)" stroke-width="1.5"></path><path d="M1094.25 252.8L1244.68 206.18" stroke="hsl(4, 84%, 98.1%)" stroke-width="1.5"></path><path d="M1094.25 252.8L1240.29 348.38" stroke="hsl(4, 84%, 98.1%)" stroke-width="1.5"></path><path d="M1296.4 -61.08L1296.4 -61.08" stroke="hsl(4, 84%, 98.1%)" stroke-width="1.5"></path><path d="M1296.4 -61.08L1396.2 57.59" stroke="hsl(4, 84%, 98.1%)" stroke-width="1.5"></path><path d="M1296.4 -61.08L1461.39 -104.21" stroke="hsl(4, 84%, 98.1%)" stroke-width="1.5"></path><path d="M1296.4 -61.08L1291.39 110.92" stroke="hsl(4, 84%, 98.1%)" stroke-width="1.5"></path><path d="M1244.68 206.18L1244.68 206.18" stroke="hsl(4, 84%, 98.1%)" stroke-width="1.5"></path><path d="M1244.68 206.18L1291.39 110.92" stroke="hsl(4, 84%, 98.1%)" stroke-width="1.5"></path><path d="M1244.68 206.18L1240.29 348.38" stroke="hsl(4, 84%, 98.1%)" stroke-width="1.5"></path><path d="M1244.68 206.18L1441.55 244.98" stroke="hsl(4, 84%, 98.1%)" stroke-width="1.5"></path><path d="M-62.35 546.34L-62.35 546.34" stroke="hsl(4, 84%, 98.1%)" stroke-width="1.5"></path><path d="M-62.35 546.34L-92.3 697.78" stroke="hsl(4, 84%, 98.1%)" stroke-width="1.5"></path><path d="M-62.35 546.34L88.08 497.65" stroke="hsl(4, 84%, 98.1%)" stroke-width="1.5"></path><path d="M-92.3 697.78L-92.3 697.78" stroke="hsl(4, 84%, 98.1%)" stroke-width="1.5"></path><path d="M-92.3 697.78L62.25 660.58" stroke="hsl(4, 84%, 98.1%)" stroke-width="1.5"></path><path d="M-92.3 697.78L88.08 497.65" stroke="hsl(4, 84%, 98.1%)" stroke-width="1.5"></path><path d="M88.08 497.65L88.08 497.65" stroke="hsl(4, 84%, 98.1%)" stroke-width="1.5"></path><path d="M88.08 497.65L62.25 660.58" stroke="hsl(4, 84%, 98.1%)" stroke-width="1.5"></path><path d="M88.08 497.65L213.88 663.15" stroke="hsl(4, 84%, 98.1%)" stroke-width="1.5"></path><path d="M62.25 660.58L62.25 660.58" stroke="hsl(4, 84%, 98.1%)" stroke-width="1.5"></path><path d="M62.25 660.58L213.88 663.15" stroke="hsl(4, 84%, 98.1%)" stroke-width="1.5"></path><path d="M213.88 663.15L213.88 663.15" stroke="hsl(4, 84%, 98.1%)" stroke-width="1.5"></path><path d="M366.42 492.93L366.42 492.93" stroke="hsl(4, 84%, 98.1%)" stroke-width="1.5"></path><path d="M366.42 492.93L200.96 511.45" stroke="hsl(4, 84%, 98.1%)" stroke-width="1.5"></path><path d="M547.63 645.17L547.63 645.17" stroke="hsl(4, 84%, 98.1%)" stroke-width="1.5"></path><path d="M547.63 645.17L710.96 671.94" stroke="hsl(4, 84%, 98.1%)" stroke-width="1.5"></path><path d="M547.63 645.17L683.06 545.65" stroke="hsl(4, 84%, 98.1%)" stroke-width="1.5"></path><path d="M659.03 407.4L659.03 407.4" stroke="hsl(4, 84%, 98.1%)" stroke-width="1.5"></path><path d="M659.03 407.4L683.06 545.65" stroke="hsl(4, 84%, 98.1%)" stroke-width="1.5"></path><path d="M659.03 407.4L815.94 512.18" stroke="hsl(4, 84%, 98.1%)" stroke-width="1.5"></path><path d="M659.03 407.4L547.63 645.17" stroke="hsl(4, 84%, 98.1%)" stroke-width="1.5"></path><path d="M683.06 545.65L683.06 545.65" stroke="hsl(4, 84%, 98.1%)" stroke-width="1.5"></path><path d="M683.06 545.65L710.96 671.94" stroke="hsl(4, 84%, 98.1%)" stroke-width="1.5"></path><path d="M683.06 545.65L815.94 512.18" stroke="hsl(4, 84%, 98.1%)" stroke-width="1.5"></path><path d="M710.96 671.94L710.96 671.94" stroke="hsl(4, 84%, 98.1%)" stroke-width="1.5"></path><path d="M815.94 512.18L815.94 512.18" stroke="hsl(4, 84%, 98.1%)" stroke-width="1.5"></path><path d="M1007.49 560.19L1007.49 560.19" stroke="hsl(4, 84%, 98.1%)" stroke-width="1.5"></path><path d="M1007.49 560.19L963.63 651.78" stroke="hsl(4, 84%, 98.1%)" stroke-width="1.5"></path><path d="M1007.49 560.19L1117.79 525.81" stroke="hsl(4, 84%, 98.1%)" stroke-width="1.5"></path><path d="M1007.49 560.19L1125.12 645.01" stroke="hsl(4, 84%, 98.1%)" stroke-width="1.5"></path><path d="M1007.49 560.19L1010.38 387.29" stroke="hsl(4, 84%, 98.1%)" stroke-width="1.5"></path><path d="M1007.49 560.19L834.69 640.38" stroke="hsl(4, 84%, 98.1%)" stroke-width="1.5"></path><path d="M963.63 651.78L963.63 651.78" stroke="hsl(4, 84%, 98.1%)" stroke-width="1.5"></path><path d="M1117.79 525.81L1117.79 525.81" stroke="hsl(4, 84%, 98.1%)" stroke-width="1.5"></path><path d="M1117.79 525.81L1125.12 645.01" stroke="hsl(4, 84%, 98.1%)" stroke-width="1.5"></path><path d="M1117.79 525.81L1242.3 556.19" stroke="hsl(4, 84%, 98.1%)" stroke-width="1.5"></path><path d="M1117.79 525.81L1010.38 387.29" stroke="hsl(4, 84%, 98.1%)" stroke-width="1.5"></path><path d="M1125.12 645.01L1125.12 645.01" stroke="hsl(4, 84%, 98.1%)" stroke-width="1.5"></path><path d="M1291.39 110.92L1291.39 110.92" stroke="hsl(4, 84%, 98.1%)" stroke-width="1.5"></path><path d="M1291.39 110.92L1396.2 57.59" stroke="hsl(4, 84%, 98.1%)" stroke-width="1.5"></path><path d="M1240.29 348.38L1240.29 348.38" stroke="hsl(4, 84%, 98.1%)" stroke-width="1.5"></path><path d="M1240.29 348.38L1421.48 396.85" stroke="hsl(4, 84%, 98.1%)" stroke-width="1.5"></path><path d="M1240.29 348.38L1242.3 556.19" stroke="hsl(4, 84%, 98.1%)" stroke-width="1.5"></path><path d="M1240.29 348.38L1402.94 488.7" stroke="hsl(4, 84%, 98.1%)" stroke-width="1.5"></path><path d="M1240.29 348.38L1117.79 525.81" stroke="hsl(4, 84%, 98.1%)" stroke-width="1.5"></path><path d="M1242.3 556.19L1242.3 556.19" stroke="hsl(4, 84%, 98.1%)" stroke-width="1.5"></path><path d="M1242.3 556.19L1259.17 652.16" stroke="hsl(4, 84%, 98.1%)" stroke-width="1.5"></path><path d="M1242.3 556.19L1125.12 645.01" stroke="hsl(4, 84%, 98.1%)" stroke-width="1.5"></path><path d="M1242.3 556.19L1402.94 488.7" stroke="hsl(4, 84%, 98.1%)" stroke-width="1.5"></path><path d="M1259.17 652.16L1259.17 652.16" stroke="hsl(4, 84%, 98.1%)" stroke-width="1.5"></path><path d="M1259.17 652.16L1125.12 645.01" stroke="hsl(4, 84%, 98.1%)" stroke-width="1.5"></path><path d="M1259.17 652.16L1436.38 658.5" stroke="hsl(4, 84%, 98.1%)" stroke-width="1.5"></path><path d="M1461.39 -104.21L1461.39 -104.21" stroke="hsl(4, 84%, 98.1%)" stroke-width="1.5"></path><path d="M1461.39 -104.21L1546.92 -49.37" stroke="hsl(4, 84%, 98.1%)" stroke-width="1.5"></path><path d="M1461.39 -104.21L1396.2 57.59" stroke="hsl(4, 84%, 98.1%)" stroke-width="1.5"></path><path d="M1461.39 -104.21L1598.03 81.97" stroke="hsl(4, 84%, 98.1%)" stroke-width="1.5"></path><path d="M1461.39 -104.21L1291.39 110.92" stroke="hsl(4, 84%, 98.1%)" stroke-width="1.5"></path><path d="M1396.2 57.59L1396.2 57.59" stroke="hsl(4, 84%, 98.1%)" stroke-width="1.5"></path><path d="M1396.2 57.59L1546.92 -49.37" stroke="hsl(4, 84%, 98.1%)" stroke-width="1.5"></path><path d="M1396.2 57.59L1441.55 244.98" stroke="hsl(4, 84%, 98.1%)" stroke-width="1.5"></path><path d="M1396.2 57.59L1598.03 81.97" stroke="hsl(4, 84%, 98.1%)" stroke-width="1.5"></path><path d="M1441.55 244.98L1441.55 244.98" stroke="hsl(4, 84%, 98.1%)" stroke-width="1.5"></path><path d="M1441.55 244.98L1558.15 246.07" stroke="hsl(4, 84%, 98.1%)" stroke-width="1.5"></path><path d="M1441.55 244.98L1421.48 396.85" stroke="hsl(4, 84%, 98.1%)" stroke-width="1.5"></path><path d="M1441.55 244.98L1557.33 401.5" stroke="hsl(4, 84%, 98.1%)" stroke-width="1.5"></path><path d="M1421.48 396.85L1421.48 396.85" stroke="hsl(4, 84%, 98.1%)" stroke-width="1.5"></path><path d="M1421.48 396.85L1402.94 488.7" stroke="hsl(4, 84%, 98.1%)" stroke-width="1.5"></path><path d="M1421.48 396.85L1557.33 401.5" stroke="hsl(4, 84%, 98.1%)" stroke-width="1.5"></path><path d="M1421.48 396.85L1582.45 489.39" stroke="hsl(4, 84%, 98.1%)" stroke-width="1.5"></path><path d="M1402.94 488.7L1402.94 488.7" stroke="hsl(4, 84%, 98.1%)" stroke-width="1.5"></path><path d="M1402.94 488.7L1436.38 658.5" stroke="hsl(4, 84%, 98.1%)" stroke-width="1.5"></path><path d="M1402.94 488.7L1557.33 401.5" stroke="hsl(4, 84%, 98.1%)" stroke-width="1.5"></path><path d="M1402.94 488.7L1582.45 489.39" stroke="hsl(4, 84%, 98.1%)" stroke-width="1.5"></path><path d="M1436.38 658.5L1436.38 658.5" stroke="hsl(4, 84%, 98.1%)" stroke-width="1.5"></path><path d="M1436.38 658.5L1596.43 668.49" stroke="hsl(4, 84%, 98.1%)" stroke-width="1.5"></path><path d="M1436.38 658.5L1242.3 556.19" stroke="hsl(4, 84%, 98.1%)" stroke-width="1.5"></path><path d="M1436.38 658.5L1582.45 489.39" stroke="hsl(4, 84%, 98.1%)" stroke-width="1.5"></path><path d="M1436.38 658.5L1421.48 396.85" stroke="hsl(4, 84%, 98.1%)" stroke-width="1.5"></path><path d="M1546.92 -49.37L1546.92 -49.37" stroke="hsl(4, 84%, 98.1%)" stroke-width="1.5"></path><path d="M1546.92 -49.37L1598.03 81.97" stroke="hsl(4, 84%, 98.1%)" stroke-width="1.5"></path><path d="M1598.03 81.97L1598.03 81.97" stroke="hsl(4, 84%, 98.1%)" stroke-width="1.5"></path><path d="M1598.03 81.97L1558.15 246.07" stroke="hsl(4, 84%, 98.1%)" stroke-width="1.5"></path><path d="M1558.15 246.07L1558.15 246.07" stroke="hsl(4, 84%, 98.1%)" stroke-width="1.5"></path><path d="M1558.15 246.07L1557.33 401.5" stroke="hsl(4, 84%, 98.1%)" stroke-width="1.5"></path><path d="M1558.15 246.07L1421.48 396.85" stroke="hsl(4, 84%, 98.1%)" stroke-width="1.5"></path><path d="M1558.15 246.07L1582.45 489.39" stroke="hsl(4, 84%, 98.1%)" stroke-width="1.5"></path><path d="M1558.15 246.07L1396.2 57.59" stroke="hsl(4, 84%, 98.1%)" stroke-width="1.5"></path><path d="M1557.33 401.5L1557.33 401.5" stroke="hsl(4, 84%, 98.1%)" stroke-width="1.5"></path><path d="M1557.33 401.5L1582.45 489.39" stroke="hsl(4, 84%, 98.1%)" stroke-width="1.5"></path><path d="M1557.33 401.5L1596.43 668.49" stroke="hsl(4, 84%, 98.1%)" stroke-width="1.5"></path><path d="M1582.45 489.39L1582.45 489.39" stroke="hsl(4, 84%, 98.1%)" stroke-width="1.5"></path><path d="M1582.45 489.39L1596.43 668.49" stroke="hsl(4, 84%, 98.1%)" stroke-width="1.5"></path><path d="M1596.43 668.49L1596.43 668.49" stroke="hsl(4, 84%, 98.1%)" stroke-width="1.5"></path><circle r="25" cx="200.96" cy="511.45" fill="url(&quot;#SvgjsRadialGradient1001&quot;)"></circle><circle r="25" cx="407.95" cy="676.51" fill="url(&quot;#SvgjsRadialGradient1001&quot;)"></circle><circle r="25" cx="552.42" cy="501.44" fill="url(&quot;#SvgjsRadialGradient1001&quot;)"></circle><circle r="25" cx="844.41" cy="370.85" fill="url(&quot;#SvgjsRadialGradient1001&quot;)"></circle><circle r="25" cx="834.69" cy="640.38" fill="url(&quot;#SvgjsRadialGradient1001&quot;)"></circle><circle r="25" cx="1010.38" cy="387.29" fill="url(&quot;#SvgjsRadialGradient1001&quot;)"></circle><circle r="25" cx="1143.43" cy="67.97" fill="url(&quot;#SvgjsRadialGradient1001&quot;)"></circle><circle r="25" cx="1094.25" cy="252.8" fill="url(&quot;#SvgjsRadialGradient1001&quot;)"></circle><circle r="25" cx="1296.4" cy="-61.08" fill="url(&quot;#SvgjsRadialGradient1001&quot;)"></circle><circle r="25" cx="1244.68" cy="206.18" fill="url(&quot;#SvgjsRadialGradient1001&quot;)"></circle><circle r="5" cx="-62.35" cy="546.34" fill="#fac9c6"></circle><circle r="5" cx="-92.3" cy="697.78" fill="#fac9c6"></circle><circle r="5" cx="88.08" cy="497.65" fill="#fac9c6"></circle><circle r="5" cx="62.25" cy="660.58" fill="#fac9c6"></circle><circle r="5" cx="213.88" cy="663.15" fill="#fac9c6"></circle><circle r="5" cx="366.42" cy="492.93" fill="#fac9c6"></circle><circle r="5" cx="547.63" cy="645.17" fill="#fac9c6"></circle><circle r="5" cx="659.03" cy="407.4" fill="#fac9c6"></circle><circle r="5" cx="683.06" cy="545.65" fill="#fac9c6"></circle><circle r="5" cx="710.96" cy="671.94" fill="#fac9c6"></circle><circle r="5" cx="815.94" cy="512.18" fill="#fac9c6"></circle><circle r="5" cx="1007.49" cy="560.19" fill="#fac9c6"></circle><circle r="5" cx="963.63" cy="651.78" fill="#fac9c6"></circle><circle r="5" cx="1117.79" cy="525.81" fill="#fac9c6"></circle><circle r="5" cx="1125.12" cy="645.01" fill="#fac9c6"></circle><circle r="5" cx="1291.39" cy="110.92" fill="#fac9c6"></circle><circle r="5" cx="1240.29" cy="348.38" fill="#fac9c6"></circle><circle r="5" cx="1242.3" cy="556.19" fill="#fac9c6"></circle><circle r="5" cx="1259.17" cy="652.16" fill="#fac9c6"></circle><circle r="5" cx="1461.39" cy="-104.21" fill="#fac9c6"></circle><circle r="5" cx="1396.2" cy="57.59" fill="#fac9c6"></circle><circle r="5" cx="1441.55" cy="244.98" fill="#fac9c6"></circle><circle r="5" cx="1421.48" cy="396.85" fill="#fac9c6"></circle><circle r="5" cx="1402.94" cy="488.7" fill="#fac9c6"></circle><circle r="5" cx="1436.38" cy="658.5" fill="#fac9c6"></circle><circle r="5" cx="1546.92" cy="-49.37" fill="#fac9c6"></circle><circle r="5" cx="1598.03" cy="81.97" fill="#fac9c6"></circle><circle r="5" cx="1558.15" cy="246.07" fill="#fac9c6"></circle><circle r="5" cx="1557.33" cy="401.5" fill="#fac9c6"></circle><circle r="5" cx="1582.45" cy="489.39" fill="#fac9c6"></circle><circle r="5" cx="1596.43" cy="668.49" fill="#fac9c6"></circle></g><defs><mask id="SvgjsMask1000"><rect width="1440" height="560" fill="#ffffff"></rect></mask><radialGradient id="SvgjsRadialGradient1001"><stop stop-color="#ffffff" offset="0.1"></stop><stop stop-color="rgba(245, 147, 140, 1)" offset="0.2"></stop><stop stop-color="rgba(245, 147, 140, 0)" offset="1"></stop></radialGradient></defs></svg>